<?xml version="1.0" encoding="UTF-8" standalone="no"?>
<!-- Created with Inkscape (http://www.inkscape.org/) -->

<svg
   width="210mm"
   height="297mm"
   viewBox="0 0 210 297"
   version="1.1"
   id="svg5"
   inkscape:version="1.1.2 (b8e25be833, 2022-02-05)"
   sodipodi:docname="drawing.svg"
   xmlns:inkscape="http://www.inkscape.org/namespaces/inkscape"
   xmlns:sodipodi="http://sodipodi.sourceforge.net/DTD/sodipodi-0.dtd"
   xmlns="http://www.w3.org/2000/svg"
   xmlns:svg="http://www.w3.org/2000/svg">
  <sodipodi:namedview
     id="namedview7"
     pagecolor="#505050"
     bordercolor="#eeeeee"
     borderopacity="1"
     inkscape:pageshadow="0"
     inkscape:pageopacity="0"
     inkscape:pagecheckerboard="0"
     inkscape:document-units="mm"
     showgrid="false"
     inkscape:zoom="0.733172"
     inkscape:cx="396.22353"
     inkscape:cy="561.94181"
     inkscape:window-width="1920"
     inkscape:window-height="1009"
     inkscape:window-x="-8"
     inkscape:window-y="-8"
     inkscape:window-maximized="1"
     inkscape:current-layer="layer1" />
  <defs
     id="defs2" />
  <g
     inkscape:label="Layer 1"
     inkscape:groupmode="layer"
     id="layer1">
    <path
       id="path53"
       style="fill:#000000;stroke-width:0.999999"
       d="M 396.84961 221.64062 A 339.62019 339.62019 0 0 0 57.230469 561.25977 A 339.62019 339.62019 0 0 0 396.84961 900.88086 A 339.62019 339.62019 0 0 0 736.4707 561.25977 A 339.62019 339.62019 0 0 0 396.84961 221.64062 z M 396.84961 274.15039 A 287.10863 287.10863 0 0 1 683.95898 561.25977 A 287.10863 287.10863 0 0 1 396.84961 848.36914 A 287.10863 287.10863 0 0 1 109.74219 561.25977 A 287.10863 287.10863 0 0 1 396.84961 274.15039 z "
       transform="scale(0.26458333)" />
    <path
       id="rect284"
       style="fill:#000000;stroke-width:0.831541"
       d="M 169.07227 441.43555 L 169.07227 681.08594 L 624.62695 681.08594 L 624.62695 441.43555 L 169.07227 441.43555 z M 193.5957 456.91797 L 600.10547 456.91797 L 600.10547 665.60156 L 193.5957 665.60156 L 193.5957 456.91797 z M 213.34961 471.20312 L 213.34961 651.31641 L 580.35156 651.31641 L 580.35156 471.20312 L 213.34961 471.20312 z M 396.84961 479.42383 A 81.836192 81.836192 0 0 1 478.6875 561.25977 A 81.836192 81.836192 0 0 1 396.84961 643.0957 A 81.836192 81.836192 0 0 1 315.01367 561.25977 A 81.836192 81.836192 0 0 1 396.84961 479.42383 z "
       transform="scale(0.26458333)" />
  </g>
</svg>
